<svg xmlns="http://www.w3.org/2000/svg" version="1.1" xmlns:xlink="http://www.w3.org/1999/xlink" xmlns:svgjs="http://svgjs.dev/svgjs" width="1500" height="518" viewBox="0 0 1500 518"><g transform="matrix(1,0,0,1,-0.9090909090909918,-0.19428907132669337)"><svg viewBox="0 0 396 137" data-background-color="#ffffff" preserveAspectRatio="xMidYMid meet" height="518" width="1500" xmlns="http://www.w3.org/2000/svg" xmlns:xlink="http://www.w3.org/1999/xlink"><g id="tight-bounds" transform="matrix(1,0,0,1,0.2400000000000091,0.051385333536217104)"><svg viewBox="0 0 395.52 136.89722933292757" height="136.89722933292757" width="395.52"><g><svg viewBox="0 0 395.52 136.89722933292757" height="136.89722933292757" width="395.52"><g><svg viewBox="0 0 395.52 136.89722933292757" height="136.89722933292757" width="395.52"><g id="textblocktransform"><svg viewBox="0 0 395.52 136.89722933292757" height="136.89722933292757" width="395.52" id="textblock"><g><svg viewBox="0 0 395.52 98.0626040201618" height="98.0626040201618" width="395.52"><rect width="395.52" height="98.0626040201618" x="0" y="0" opacity="1" fill="#111111" data-fill-palette-color="tertiary"></rect><g transform="matrix(1,0,0,1,23.461705032,23.461705032)"><svg width="348.596589936" viewBox="2.55 -37.05 258.33 37.9" height="51.1391939561618" data-palette-color="#ffffff"><path d="M5 0L2.55 0 17.55-37.05 17.75-37.05 32.75 0 30 0 16.95-33.15 18.65-34.1 5 0ZM9.2-11.75L9.8-14.05 25.55-14.05 26.25-11.75 9.2-11.75ZM40.95 0L40.95-35.5 43.4-35.5 43.4-2.35 62.85-2.35 62.85 0 40.95 0ZM71.1 0L71.1-35.5 73.55-35.5 73.55-2.35 93-2.35 93 0 71.1 0ZM119.09-35.5L119.09-19.5 118.99-17.75 119.14-18.2 136.69-35.5 139.84-35.5 125.14-20.95 141.49 0 138.39 0 123.34-19.4 119.04-15.3 119.09 0 116.59 0 116.59-35.5 119.09-35.5ZM149.34 0L149.34-35.5 151.79-35.5 151.79 0 149.34 0ZM192.89 0.85L192.79 0.85 164.79-30.7 165.44-31.2 165.49 0 163.09 0 163.09-36.25 163.24-36.25 191.24-4.45 190.59-4.25 190.54-35.5 192.89-35.5 192.89 0.85ZM214.63 0L204.18 0 204.18-35.5 212.93-35.5Q218.08-35.5 221.71-33.88 225.33-32.25 227.58-29.6 229.83-26.95 230.88-23.8 231.93-20.65 231.93-17.55L231.93-17.55Q231.93-13.5 230.53-10.28 229.13-7.05 226.71-4.75 224.28-2.45 221.18-1.23 218.08 0 214.63 0L214.63 0ZM206.63-33.1L206.63-2.35 213.98-2.35Q217.18-2.35 219.98-3.4 222.78-4.45 224.91-6.45 227.03-8.45 228.23-11.28 229.43-14.1 229.43-17.7L229.43-17.7Q229.43-20.75 228.41-23.53 227.38-26.3 225.33-28.45 223.28-30.6 220.28-31.85 217.28-33.1 213.28-33.1L213.28-33.1 206.63-33.1ZM259.68-33.4L258.73-31.5Q257.18-32.25 254.93-32.9 252.68-33.55 250.43-33.55L250.43-33.55Q246.93-33.55 244.83-31.8 242.73-30.05 242.73-27.4L242.73-27.4Q242.73-25.4 243.93-24.08 245.13-22.75 247.08-21.83 249.03-20.9 251.23-20.05L251.23-20.05Q252.98-19.4 254.71-18.6 256.43-17.8 257.83-16.65 259.23-15.5 260.06-13.8 260.88-12.1 260.88-9.6L260.88-9.6Q260.88-6.65 259.48-4.38 258.08-2.1 255.58-0.85 253.08 0.4 249.78 0.4L249.78 0.4Q247.13 0.4 244.96-0.25 242.78-0.9 241.16-1.78 239.53-2.65 238.58-3.25L238.58-3.25 239.73-5.25Q240.83-4.45 242.41-3.65 243.98-2.85 245.83-2.3 247.68-1.75 249.53-1.75L249.53-1.75Q251.68-1.75 253.71-2.6 255.73-3.45 257.06-5.18 258.38-6.9 258.38-9.55L258.38-9.55Q258.38-12.1 257.13-13.68 255.88-15.25 253.93-16.25 251.98-17.25 249.78-18.05L249.78-18.05Q248.08-18.7 246.38-19.43 244.68-20.15 243.28-21.18 241.88-22.2 241.06-23.65 240.23-25.1 240.23-27.15L240.23-27.15Q240.23-29.7 241.53-31.6 242.83-33.5 245.06-34.58 247.28-35.65 250.13-35.7L250.13-35.7Q252.63-35.7 255.21-35.05 257.78-34.4 259.68-33.4L259.68-33.4Z" opacity="1" transform="matrix(1,0,0,1,0,0)" fill="#ffffff" class="wordmark-text-0" data-fill-palette-color="quaternary" id="text-0"></path></svg></g></svg></g><g transform="matrix(1,0,0,1,108.8810910747071,109.7934565361618)"><svg viewBox="0 0 177.75781785058578 27.103772796765753" height="27.103772796765753" width="177.75781785058578"><g transform="matrix(1,0,0,1,0,0)"><svg width="177.75781785058578" viewBox="-0.2 -40.82 272.02 41.480000000000004" height="27.103772796765753" data-palette-color="#111111"><path d="M13.92-33.45L13.48-33.45Q10.55-33.45 10.55-31.2L10.55-31.2Q10.55-30.79 10.71-30.32 10.86-29.86 10.99-29.35L10.99-29.35 20.34-6.84Q20.46-6.59 20.73-6.59 21-6.59 21.17-6.86L21.17-6.86 26.56-19.56 21.8-31.05Q21.36-32.15 18.14-33.15L18.14-33.15Q17.19-33.45 16.91-33.45 16.63-33.45 16.63-33.64L16.63-33.64 16.63-34.23Q16.63-34.42 16.82-34.42L16.82-34.42 39.18-34.42Q39.38-34.42 39.38-34.23L39.38-34.23 39.38-33.64Q39.38-33.45 39.18-33.45L39.18-33.45 38.28-33.45Q35.94-33.45 34.72-31.15L34.72-31.15Q34.3-30.37 33.86-29.32L33.86-29.32 30.69-21.88 36.94-6.84Q37.06-6.59 37.33-6.59 37.6-6.59 37.77-6.86L37.77-6.86 48.1-31.15Q48.39-31.84 48.39-32.37L48.39-32.37Q48.39-33.45 45.58-33.45L45.58-33.45 44.07-33.45Q43.87-33.45 43.87-33.64L43.87-33.64 43.87-34.23Q43.87-34.42 44.07-34.42L44.07-34.42 54.93-34.42Q55.13-34.42 55.13-34.23L55.13-34.23 55.13-33.64Q55.13-33.45 54.93-33.45L54.93-33.45 53.78-33.45Q52.71-33.45 52.16-32.7 51.61-31.96 50.61-29.66L50.61-29.66 38.06-0.2Q37.79 0.39 37.5 0.52 37.21 0.66 36.65 0.66L36.65 0.66 35.5 0.66Q34.91 0.66 34.72 0.12L34.72 0.12 28.13-15.84 21.46-0.2Q21.19 0.39 20.9 0.52 20.61 0.66 20.04 0.66L20.04 0.66 18.9 0.66Q18.31 0.66 18.14 0.1L18.14 0.1 5.2-31.05Q4.81-32.01 2.78-32.73 0.76-33.45 0.28-33.45-0.2-33.45-0.2-33.64L-0.2-33.64-0.2-34.23Q-0.2-34.42 0-34.42L0-34.42 13.92-34.42Q14.11-34.42 14.11-34.23L14.11-34.23 14.11-33.64Q14.11-33.45 13.92-33.45L13.92-33.45ZM31.79-32.3L31.79-32.3Q31.79-33.33 29.69-33.42L29.69-33.42Q27.56-33.3 27.25-31.93L27.25-31.93Q27.15-31.59 27.15-31.19 27.15-30.79 27.31-30.32 27.47-29.86 27.59-29.35L27.59-29.35 29.13-25.61 31.49-31.15Q31.79-31.84 31.79-32.3ZM57.05-10.97Q57.05-15.77 60.46-19.23 63.86-22.68 68.63-22.68 73.39-22.68 76.9-19.32 80.42-15.97 80.42-11.04 80.42-6.1 77.08-2.72 73.75 0.66 68.72 0.66 63.69 0.66 60.37-2.76 57.05-6.18 57.05-10.97ZM63.13-4.69L63.13-4.69Q65.52-0.66 69.65-0.66L69.65-0.66Q72.85-0.66 74.55-3.22 76.24-5.79 76.24-9.52 76.24-13.26 73.86-17.19 71.48-21.12 67.45-21.12L67.45-21.12Q64.5-21.12 62.8-18.57 61.11-16.02 61.11-12.1 61.11-8.18 63.13-4.69ZM98.8-17.5L98.8-17.5Q98.51-17.55 97.94-17.82L97.94-17.82Q95.92-18.75 94.77-18.75 93.62-18.75 92.37-17.32 91.11-15.89 91.11-14.75L91.11-14.75 91.11-3.71Q91.11-1.88 93.23-1.27L93.23-1.27Q94.16-1.03 94.97-0.92 95.77-0.81 96-0.71 96.24-0.61 96.24-0.33 96.24-0.05 95.99 0L95.99 0 83.76 0Q83.52-0.05 83.52-0.34L83.52-0.34Q83.52-0.78 84.66-0.93L84.66-0.93Q87.3-1.32 87.3-3.71L87.3-3.71 87.3-16.63Q87.3-17.65 86.18-18.04L86.18-18.04Q85.69-18.21 85.13-18.32 84.57-18.43 84.24-18.53 83.91-18.63 83.82-18.71 83.74-18.8 83.74-19.08 83.74-19.36 84.1-19.56L84.1-19.56 90.33-22.49Q90.62-22.63 90.69-22.63L90.69-22.63Q91.11-22.63 91.11-22.05L91.11-22.05 91.11-18.09Q91.11-17.8 91.25-17.8L91.25-17.8Q91.45-17.8 92.26-18.95L92.26-18.95Q94.58-22.19 96.09-22.19L96.09-22.19Q96.94-22.19 98.71-21.51 100.48-20.83 100.48-20.36L100.48-20.36Q100.48-19.8 99.92-18.65 99.36-17.5 98.8-17.5ZM111.2-0.93L111.2-0.93Q112.35-0.78 112.35-0.34L112.35-0.34Q112.35-0.05 112.1 0L112.1 0 101.21 0Q100.97-0.05 100.97-0.34L100.97-0.34Q100.97-0.78 102.12-0.93L102.12-0.93Q104.75-1.32 104.75-3.71L104.75-3.71 104.75-34.16Q104.75-35.18 103.63-35.57L103.63-35.57Q103.14-35.74 102.58-35.85 102.02-35.96 101.69-36.06 101.36-36.16 101.27-36.24 101.19-36.33 101.19-36.61 101.19-36.89 101.56-37.08L101.56-37.08 107.78-40.01Q108.07-40.16 108.15-40.16L108.15-40.16Q108.56-40.16 108.56-39.58L108.56-39.58 108.56-3.71Q108.56-1.32 111.2-0.93ZM129.97-21.62Q131.04-21.24 131.29-21.24 131.53-21.24 131.59-21.25 131.66-21.26 131.75-21.56L131.75-21.56 131.75-34.16Q131.75-35.18 130.63-35.57L130.63-35.57Q130.14-35.74 129.58-35.85 129.02-35.96 128.69-36.06 128.36-36.16 128.27-36.24 128.19-36.33 128.19-36.61 128.19-36.89 128.55-37.08L128.55-37.08 134.78-40.01Q135.07-40.16 135.15-40.16L135.15-40.16Q135.56-40.16 135.56-39.58L135.56-39.58 135.56-4.81Q135.68-3.74 136.17-3.27 136.66-2.81 137.76-2.81L137.76-2.81 139.17-2.91Q139.32-2.91 139.32-2.62 139.32-2.34 138.95-2.17L138.95-2.17 132.46 0.51Q132.17 0.66 131.96 0.66 131.75 0.66 131.75 0.05L131.75 0.05 131.75-2.17Q131.75-2.42 131.63-2.42L131.63-2.42Q131.46-2.42 129.6-1.32L129.6-1.32Q123.92 2.05 120.01-0.32L120.01-0.32Q116.88-2.22 115.79-6.35L115.79-6.35Q115.27-8.28 115.27-10.44 115.27-12.6 116.16-14.73 117.06-16.87 118.62-18.48L118.62-18.48Q122.06-22 126.92-22L126.92-22Q128.9-22 129.97-21.62ZM118.96-11.15Q118.96-7.45 121.01-4.68 123.06-1.9 126.72-1.9L126.72-1.9Q128.33-1.9 130.04-2.7 131.75-3.49 131.75-3.91L131.75-3.91 131.75-16.5Q131.75-16.97 131.12-17.6L131.12-17.6Q129.16-20.29 125.93-20.29 122.7-20.29 120.83-17.57 118.96-14.84 118.96-11.15ZM155.06-10.97Q155.06-15.77 158.47-19.23 161.87-22.68 166.64-22.68 171.4-22.68 174.91-19.32 178.43-15.97 178.43-11.04 178.43-6.1 175.09-2.72 171.76 0.66 166.73 0.66 161.7 0.66 158.38-2.76 155.06-6.18 155.06-10.97ZM161.14-4.69L161.14-4.69Q163.53-0.66 167.66-0.66L167.66-0.66Q170.86-0.66 172.56-3.22 174.25-5.79 174.25-9.52 174.25-13.26 171.87-17.19 169.49-21.12 165.46-21.12L165.46-21.12Q162.51-21.12 160.81-18.57 159.12-16.02 159.12-12.1 159.12-8.18 161.14-4.69ZM195.32-0.39L195.32-0.39Q195.32 0 194.88 0L194.88 0 181.48 0Q181.23-0.05 181.23-0.34L181.23-0.34Q181.23-0.78 182.38-0.93L182.38-0.93Q185.02-1.32 185.02-3.71L185.02-3.71 185.02-18.51Q185.02-18.77 184.72-18.77L184.72-18.77 182.06-18.77Q181.77-18.77 181.5-18.96 181.23-19.14 181.23-19.45 181.23-19.75 181.53-19.92L181.53-19.92Q181.94-20.17 183.48-20.58 185.02-21 185.02-21.95L185.02-21.95 185.02-22.75Q185.02-31.54 188.83-36.28L188.83-36.28Q190.95-38.94 195.3-40.38L195.3-40.38Q196.61-40.82 197.91-40.82 199.2-40.82 200.93-40.15 202.67-39.48 202.67-38.53L202.67-38.53Q202.67-38.33 202.61-38.18 202.55-38.04 202.47-37.82L202.47-37.82 201.47-35.67Q201.28-35.28 201.01-35.28L201.01-35.28Q200.93-35.28 199.96-36.05 198.98-36.82 197.9-37.46 196.81-38.11 195.34-38.11L195.34-38.11Q192.49-38.11 191.02-36.65 189.56-35.18 189.19-33.34 188.83-31.49 188.83-29.27L188.83-29.27 188.83-22.17Q188.83-21.97 189.07-21.97L189.07-21.97 193.83-21.97Q194.51-21.97 194.72-21.84 194.93-21.7 195.12-20.96 195.32-20.21 195.32-19.59 195.32-18.97 195.2-18.87 195.08-18.77 194.68-18.77L194.68-18.77 189.14-18.77Q188.83-18.77 188.83-18.53L188.83-18.53 188.83-4.2Q188.83-0.71 194.88-0.71L194.88-0.71Q195.32-0.66 195.32-0.39ZM218.65-0.2L218.65-0.78Q218.65-0.98 218.87-0.98L218.87-0.98 219.56-0.98Q221.95-0.98 223.4-2 224.86-3.03 224.86-4.39L224.86-4.39 224.86-31.42Q224.86-31.93 224.65-31.99 224.44-32.06 224.15-32.1L224.15-32.1 214.77-32.1Q212.5-31.62 211.79-28.61L211.79-28.61Q211.4-27 211.33-26.55 211.26-26.1 211.06-26.1L211.06-26.1 210.62-26.1Q210.48-26.1 210.48-26.2L210.48-26.2 210.48-27 211.38-34.62Q211.53-35.38 211.87-35.38 212.21-35.38 212.6-34.9 212.99-34.42 214.09-34.42L214.09-34.42 240.41-34.42Q241.46-34.42 241.68-34.67 241.9-34.91 242.09-35.14 242.29-35.38 242.59-35.38 242.9-35.38 242.98-35.13 243.07-34.89 243.12-34.62L243.12-34.62 244.02-27 244.02-26.2Q244.02-26.1 243.87-26.1L243.87-26.1 243.43-26.1Q243.24-26.1 243.17-26.46L243.17-26.46Q242.78-28.91 242.04-30.33 241.31-31.76 239.72-32.1L239.72-32.1 230.32-32.1Q230.03-32.06 229.82-31.99 229.62-31.93 229.62-31.42L229.62-31.42 229.62-4.39Q229.62-3.03 231.07-2 232.52-0.98 234.91-0.98L234.91-0.98 235.62-0.98Q235.82-0.98 235.82-0.78L235.82-0.78 235.82-0.2Q235.82 0 235.62 0L235.62 0 218.85 0Q218.65 0 218.65-0.2L218.65-0.2ZM252.17-19.87L250.34-19.87Q250.22-21.56 249.47-26.53 248.73-31.49 248.73-32.35 248.73-33.2 249.56-33.81 250.39-34.42 251.32-34.42 252.25-34.42 253.04-33.81 253.83-33.2 253.83-32.4 253.83-31.59 253.64-30.08 253.44-28.56 253.17-26.78 252.9-25 252.62-23.17 252.34-21.34 252.17-19.87L252.17-19.87ZM270.48-18.95L270.48-16.7Q270.48-16.16 270.08-16.16 269.67-16.16 269.45-16.75L269.45-16.75Q268.87-18.36 267.71-19.6 266.55-20.85 264.84-20.85L264.84-20.85Q262.59-20.85 261.81-18.6L261.81-18.6Q261.57-17.85 261.57-17.04 261.57-16.24 262.59-15.25 263.62-14.26 265.96-12.89 268.31-11.52 269.38-10.57L269.38-10.57Q271.82-8.4 271.82-5.54 271.82-2.69 269.72-1.01 267.62 0.66 264.84 0.66L264.84 0.66Q263.35 0.66 262.14 0.26 260.93-0.15 260.75-0.15 260.57-0.15 260.17 0.26 259.76 0.66 259.52 0.66L259.52 0.66 259.1 0.66Q258.96 0.66 258.74-1.98 258.52-4.61 258.52-5.1 258.52-5.59 258.6-5.64 258.69-5.69 258.88-5.69 259.08-5.69 259.21-5.57 259.35-5.44 259.45-5.26 259.54-5.08 259.6-4.88 259.66-4.69 259.91-4.15L259.91-4.15Q261.57-0.61 265.04-0.61L265.04-0.61Q266.57-0.61 267.5-1.75 268.43-2.88 268.43-4.27 268.43-5.66 267.7-6.62 266.96-7.57 265.88-8.35 264.79-9.13 263.52-9.86L263.52-9.86Q258.59-12.74 258.59-16.24L258.59-16.24Q258.59-18.85 260.84-20.74 263.08-22.63 265.45-22.63 267.82-22.63 268.95-22.12 270.09-21.61 270.29-21.25 270.48-20.9 270.48-18.95L270.48-18.95Z" opacity="1" transform="matrix(1,0,0,1,0,0)" fill="#111111" class="slogan-text-1" data-fill-palette-color="secondary" id="text-1"></path></svg></g></svg></g></svg></g></svg></g></svg></g><defs></defs></svg><rect width="395.52" height="136.89722933292757" fill="none" stroke="none" visibility="hidden"></rect></g></svg></g></svg>